<?xml version="1.0" standalone="no"?>
<!DOCTYPE svg PUBLIC "-//W3C//DTD SVG 20010904//EN"
 "http://www.w3.org/TR/2001/REC-SVG-20010904/DTD/svg10.dtd">
<svg version="1.0" xmlns="http://www.w3.org/2000/svg"
 width="700.000000pt" height="700.000000pt" viewBox="0 0 700.000000 700.000000"
 preserveAspectRatio="xMidYMid meet">
<metadata>
Created by potrace 1.14, written by Peter Selinger 2001-2017
</metadata>
<g transform="translate(0.000000,700.000000) scale(0.100000,-0.100000)"
fill="#000000" stroke="none">
<path d="M0 3500 l0 -3500 3500 0 3500 0 0 3500 0 3500 -3500 0 -3500 0 0
-3500z m2248 1320 c416 -28 707 -129 909 -314 176 -161 289 -415 323 -724 18
-162 8 -456 -19 -596 -109 -543 -447 -821 -1091 -896 -52 -6 -303 -14 -557
-17 l-463 -6 0 1281 0 1282 378 0 c207 0 442 -5 520 -10z m2140 -527 c1 -293
4 -533 7 -533 3 0 260 241 572 535 l568 535 219 0 c202 0 217 -1 205 -17 -8
-9 -292 -277 -632 -597 l-618 -580 676 -676 c371 -371 675 -678 675 -683 0 -4
-101 -7 -224 -7 l-224 0 -611 616 -611 615 -2 -613 -3 -613 -170 0 -170 0 -3
1278 -2 1277 172 -2 173 -3 3 -532z"/>
<path d="M1690 3550 l0 -990 278 0 c390 0 550 25 727 110 254 123 388 347 425
715 15 137 8 326 -14 455 -60 340 -245 556 -551 645 -152 44 -263 55 -577 55
l-288 0 0 -990z"/>
</g>
</svg>
